<?xml version="1.0" encoding="utf-8" ?>
<?xml-stylesheet type="text/css" href="nyc.css"?>
<svg width="2000" height="3000"
viewBox="0, 0 2000, 3000"
xmlns="http://www.w3.org/2000/svg"
xmlns:xlink="http://www.w3.org/1999/xlink">
<defs>
<path id="1" d="
M 105, 483
L 105, 997.4778011304626 A 30,30 0 0 0 105.815813559439, 1004.4264169496438
L 109.184186440561, 1018.5735830503562 A 30,30 0 0 1 110, 1025.5221988695375
L 110, 1199.7471973955162 A 30,30 0 0 0 117.40049170366939, 1219.4769268605667
L 218.76210027240234, 1335.5820421302062 A 30,30 0 0 0 221.4054273042779, 1338.252107961993
L 319.95618126445504, 1426.05187058106 A 30,30 0 0 1 330, 1448.4516658778973
L 330, 2286.7859429311525 A 30,30 0 0 0 352.47113523648824, 2315.8258498761265
L 600, 2380
" />
<path id="7" d="
M 105, 1512
L 105, 1486 A 30,30 0 0 1 135, 1456
L 600, 1456
" />
<path id="a" d="
M 220, 735
L 220, 1639.5761826713547 A 30,30 0 0 0 246.21237160978254, 1669.3361200230631
L 407.78762839021744, 1689.9002436133005 A 30,30 0 0 1 434, 1719.660180965009
L 434, 2100
" />
<path id="c" d="
M 220, 735
L 220, 1639.5761826713547 A 30,30 0 0 0 246.21237160978254, 1669.3361200230631
L 407.78762839021744, 1689.9002436133005 A 30,30 0 0 1 434, 1719.660180965009
L 434, 2100
" />
<path id="e" d="
M 600, 1385
L 250, 1385 A 30,30 0 0 0 220, 1415
L 220, 1639.5761826713547 A 30,30 0 0 0 246.21237160978254, 1669.3361200230631
L 407.78762839021744, 1689.9002436133005 A 30,30 0 0 1 434, 1719.660180965009
L 434, 2100
" />
<path id="b" d="
M 226, 735
L 226, 1349 A 30,30 0 0 0 256, 1379
L 410, 1379 A 30,30 0 0 1 440, 1409
L 440, 1720 A 30,30 0 0 0 470, 1750
L 600, 1750
" />
<path id="d" d="
M 226, 735
L 226, 1349 A 30,30 0 0 0 256, 1379
L 410, 1379 A 30,30 0 0 1 440, 1409
L 440, 1720 A 30,30 0 0 0 470, 1750
L 600, 1750
" />
<path id="f" d="
M 600, 1309
L 470, 1309 A 30,30 0 0 0 440, 1339
L 440, 1720 A 30,30 0 0 0 470, 1750
L 600, 1750
" />
<path id="m" d="
M 600, 1379
L 470, 1379 A 30,30 0 0 0 440, 1409
L 440, 1720 A 30,30 0 0 0 470, 1750
L 600, 1750
" />
<path id="n" d="
M 600, 1330
L 360, 1330 A 30,30 0 0 0 330, 1360
L 330, 1419.3803331527988 A 30,30 0 0 0 342.79612966910014, 1443.95729076837
L 503.1195861400287, 1556.18371029802 A 30,30 0 0 1 513.3796150693329, 1568.6886242827322
L 550, 1652
" />
<path id="q" d="
M 600, 1303
L 360, 1303 A 30,30 0 0 0 330, 1333
L 330, 1419.3803331527988 A 30,30 0 0 0 342.79612966910014, 1443.95729076837
L 503.1195861400287, 1556.18371029802 A 30,30 0 0 1 513.3796150693329, 1568.6886242827322
L 550, 1652
" />
<text x="214" y="1339.2505605208967" id="s8av59st" text-anchor="end" dominant-baseline="hanging" >Columbus Circle</text>
</defs>
<g class="g_7av">
<g class="bg">
<use xlink:href="#1" class="route r_1"/>
</g>
<g class="fg">
<use xlink:href="#1" class="route r_1"/>
</g>
</g>
<g class="g_flushing">
<g class="bg">
<use xlink:href="#7" class="route r_7"/>
</g>
<g class="fg">
<use xlink:href="#7" class="route r_7"/>
</g>
</g>
<g class="g_8av">
<g class="bg">
<use xlink:href="#a" class="route r_a"/>
<use xlink:href="#c" class="route r_c"/>
<use xlink:href="#e" class="route r_e"/>
</g>
<g class="fg">
<use xlink:href="#a" class="route r_a"/>
<use xlink:href="#c" class="route r_c"/>
<use xlink:href="#e" class="route r_e"/>
</g>
</g>
<g class="g_6av">
<g class="bg">
<use xlink:href="#b" class="route r_b"/>
<use xlink:href="#d" class="route r_d"/>
<use xlink:href="#f" class="route r_f"/>
<use xlink:href="#m" class="route r_m"/>
</g>
<g class="fg">
<use xlink:href="#b" class="route r_b"/>
<use xlink:href="#d" class="route r_d"/>
<use xlink:href="#f" class="route r_f"/>
<use xlink:href="#m" class="route r_m"/>
</g>
</g>
<g class="g_bdwy">
<g class="bg">
<use xlink:href="#n" class="route r_n"/>
<use xlink:href="#q" class="route r_q"/>
</g>
<g class="fg">
<use xlink:href="#n" class="route r_n"/>
<use xlink:href="#q" class="route r_q"/>
</g>
</g>
<use xlink:href="#s8av59st" class="stop s_8av59st"/>
</svg>
